<?xml version="1.0" encoding="UTF-8"?>
<!DOCTYPE svg PUBLIC "-//W3C//DTD SVG 1.1//EN" "http://www.w3.org/Graphics/SVG/1.1/DTD/svg11.dtd">
<!-- Creator: CorelDRAW -->
<svg xmlns="http://www.w3.org/2000/svg" xml:space="preserve" width="1.333in" height="1.333in" version="1.1" style="shape-rendering:geometricPrecision; text-rendering:geometricPrecision; image-rendering:optimizeQuality; fill-rule:evenodd; clip-rule:evenodd"
viewBox="0 0 1333 1333"
 xmlns:xlink="http://www.w3.org/1999/xlink"
 xmlns:xodm="http://www.corel.com/coreldraw/odm/2003">
 <defs>
  <style type="text/css">
   <![CDATA[
    .fil0 {fill:#020307}
    .fil5 {fill:#050D1E}
    .fil9 {fill:#090A1D}
    .fil12 {fill:#090A21}
    .fil2 {fill:#090D21}
    .fil7 {fill:#0A1229}
    .fil17 {fill:#0A162D}
    .fil21 {fill:#0C192B}
    .fil4 {fill:#0E1932}
    .fil6 {fill:#0E1D36}
    .fil27 {fill:#0E223C}
    .fil23 {fill:#102235}
    .fil24 {fill:#11101D}
    .fil18 {fill:#131B33}
    .fil14 {fill:#13233C}
    .fil16 {fill:#132B45}
    .fil25 {fill:#151626}
    .fil15 {fill:#152139}
    .fil13 {fill:#15253E}
    .fil22 {fill:#152E4A}
    .fil8 {fill:#162641}
    .fil20 {fill:#162942}
    .fil10 {fill:#162945}
    .fil11 {fill:#182D49}
    .fil3 {fill:#192942}
    .fil19 {fill:#1A293E}
    .fil1 {fill:#27415C}
    .fil26 {fill:#2E3244}
   ]]>
  </style>
 </defs>
 <g id="Layer_x0020_1">
  <metadata id="CorelCorpID_0Corel-Layer"/>
  <g id="_2607434689728">
   <path class="fil0" d="M479.52 907.02zm125.74 -110.35l-125.74 110.35zm125.74 -110.35c32.92,-45.8 94.87,-32.22 82.18,-7.3 -4.29,8.43 -33.45,19.71 -45.15,26.84 -20.72,12.63 -30.13,0.24 -37.03,-19.55zm-69.76 -308.9c7.08,-7.39 4.82,-8.78 10.41,-1.39l-10.41 1.39zm200.14 -141.1c24.26,-0.57 33.06,45.52 5.13,60.56 -24.49,13.19 -28.14,-60.02 -5.13,-60.56zm-84.53 29.85c-16.29,16.67 -37.22,27.07 -61.59,20.02 -33.32,-9.64 -31.75,-9.91 -69.4,-4.63l-8.94 4.36 -15.22 12.66 -3.36 2.37 -12.55 15.86 6.09 4.64 13.6 2.02c12.54,-5.89 23.05,-1.77 35.75,3.19l7.99 12.98c-6.01,10.08 -4.16,6.78 -14.82,12.11 7.79,15.6 -28.97,25.68 -36.07,41.28 0.68,0.46 32.6,5.42 29.45,-3.59l-0.36 0.07 -5.07 -7.08 12.76 1.13c9.94,13.89 13.95,6.44 21.14,10.92 4.75,2.96 9.9,16.51 21.27,23.17 27.78,16.25 52.85,-2.14 67.12,-25.82 -2.12,-30.07 10.96,-77.72 46.72,-82.02 29.51,-3.54 37.14,68.52 41.84,88.98 8.42,36.61 27.24,90.82 11.69,126.91 -13.23,30.73 -66.72,36.83 -98.62,51.46 -9.59,16.26 -28.08,17.44 -45,25.54 -16.03,7.68 -21.44,24.82 -36.5,36.94l0.91 -2.78c-190.96,43.42 -261.55,-119.74 -205.73,-279.38 35.04,-100.19 34.58,-228.2 144.15,-270.03 140.69,-53.7 168.95,69.79 152.76,178.73zm-651.44 956.81l1333.33 0 0 -1333.33 -1333.33 0 0 1333.33z"/>
   <path class="fil1" d="M656.66 606.95c-22.32,-8.89 -1.07,-27.05 13.44,-24.32 3.85,10.72 -2.83,20.4 -13.44,24.32zm-2.29 -116.95c-0.03,-2.91 6.66,-0.74 3.03,-0.24 -0.06,0.01 -2.98,4.12 -3.03,0.24zm-114.75 259.98c9.62,-34.67 19.83,-22.42 25.62,-44.42 3.9,-14.81 2.98,-33.46 17.05,-43.01 0.72,-20.25 8.69,-21.69 2.72,-38.29l11.81 -3.36 0.23 -10.52 13.06 1.29 22.46 -5.22 -2.02 36.53c14.37,2.41 19.47,-23.11 54.97,-11.3l4.7 -1.8c22.08,6.78 31.01,15.08 31.09,-15.03 0.07,-25.83 -3.54,-35.64 0.55,-64l-4.29 -19.23c-10.61,-20.16 -15.39,-25.03 -16.6,-48.61 -1.15,-22.46 2.05,-39.83 -21.73,-44.45l-3.12 2.43c-4.83,10.45 -4.51,7.78 -14.83,10.13l1.17 -0.89c-7.6,19.17 -6.97,44.7 -10.93,64.99l-11.83 1.87c-27.97,52.31 -23.72,38.2 -81.83,60.9 -7.94,3.1 -43.15,13.21 -38.52,-7.24 1.61,-7.12 18.57,-21.14 22.99,-39.72l5.46 -5.98 -12.34 5.15 -1.6 -14.48c-7.95,-8.3 -30.8,5.13 -53.7,-6.09 -4.73,-12.77 -0.62,-19.34 9.39,-27.98l3.21 -11.55 13.89 -3.92 12.87 -2.9 15.6 -21.05c-13.53,-5.53 -11,-6.97 -25.26,-3.67 -10.58,2.45 -1.12,0.76 -10.11,-4.77l-13.6 -2.02 -3.28 8.3 -10.41 3.41c-9.42,8.52 -2.99,6.46 -15.04,4.79 -1.9,-12.21 -2.26,-10.89 8.31,-17.03l0.69 1.44 12.63 -18.38 6.86 -3.14c6.01,-10.67 6.25,-9.85 18.35,-13.46 3.41,-11.37 4.51,-9 16.4,-11.69l35.7 -3.83 43.56 -7.24c9.61,-16.87 -7.33,-24.61 -13.53,-39.16 -7.91,-18.55 -4.46,-39.12 -1.41,-58.33l2.11 -7.76c-45.99,-25 -112.37,-58.25 -151.62,-4.23 -31.68,43.59 -43.81,136.48 -48.82,189.62 -13.25,140.35 -12.92,266.42 152.98,294.88z"/>
   <path class="fil2" d="M319.8 510c30.8,7.6 34.52,21.03 34.55,53.24 0.02,14.45 -5.14,64.24 -10.91,76.27 -17.91,37.34 -23.64,-128.94 -23.64,-129.51zm240.14 237.2c-59.18,15.73 -95.31,12.4 -137.15,-36.87 -39.43,-46.44 -54.4,-92.39 -51.19,-153.04 6.26,-118.24 9.65,-243.39 78.08,-344.35 70.04,-45.1 93.99,-9.3 149.56,27.32 28.1,18.52 41.96,22.89 36.13,62.22 -6.73,45.44 -6.71,37.04 15.74,74.05 16.19,-108.94 -12.06,-232.43 -152.76,-178.73 -109.56,41.82 -109.11,169.83 -144.15,270.03 -55.82,159.64 14.76,322.8 205.73,279.38z"/>
   <path class="fil3" d="M449.69 212.93c-68.43,100.96 -71.83,226.11 -78.08,344.35 -3.21,60.65 11.76,106.6 51.19,153.04 41.84,49.28 77.96,52.61 137.15,36.87l-0.91 2.78 7.65 -25.13 -9.7 2.35c-7.65,19.18 1.04,11.91 -17.36,22.78 -165.9,-28.46 -166.22,-154.53 -152.98,-294.88 5.02,-53.14 17.14,-146.02 48.82,-189.62 39.25,-54.02 105.63,-20.76 151.62,4.23 -18.41,-24.33 -36.2,-35.71 -61.74,-51.28 -38.93,-23.74 -28.66,-18.13 -75.66,-5.5z"/>
   <path class="fil4" d="M449.69 212.93c47,-12.63 36.74,-18.24 75.66,5.5 25.54,15.57 43.33,26.94 61.74,51.28l-2.11 7.76c18.21,23.94 8.74,20.04 13.06,44.48 2.74,15.5 13.92,19.14 23,29.8 33.64,39.5 -48.52,31.15 -64.68,30.45l-35.7 3.83 -0.53 5.87c37.65,-5.28 36.08,-5 69.4,4.63 24.38,7.05 45.3,-3.35 61.59,-20.02 -22.44,-37.01 -22.47,-28.61 -15.74,-74.05 5.83,-39.33 -8.03,-43.7 -36.13,-62.22 -55.57,-36.61 -79.52,-72.42 -149.56,-27.32z"/>
   <path class="fil2" d="M479.52 907.02c3.13,5.77 49.97,95.87 6.76,58.38 -21.43,-18.59 -60.21,-71.25 -84.86,-97.17 -27.04,-28.44 -39.83,-87.73 -6.02,-57.86 14.37,12.7 26.93,35.05 40.1,50.55 13.29,15.64 29.74,30.88 44.02,46.09zm0 0l-479.85 -907.02 479.85 907.02z"/>
   <path class="fil3" d="M479.52 907.02c-14.28,-15.21 -30.73,-30.45 -44.02,-46.09 -13.17,-15.5 -25.74,-37.85 -40.1,-50.55 -33.81,-29.87 -21.02,29.42 6.02,57.86 24.65,25.92 63.43,78.58 84.86,97.17 43.21,37.49 -3.63,-52.61 -6.76,-58.38z"/>
   <path class="fil5" d="M638.9 502.16c9.64,-15.92 9.94,-29 10.73,-48.46l12.84 -3.44 -1.17 0.89 14.83 -10.13 3.12 -2.43 8.99 -10.87c18.03,1.4 17.61,28.37 20.1,42.46 4.06,23.01 9.24,37.26 9.24,61.47l4.29 19.23c12.19,24.72 16.59,53.43 9.71,80.83 -5.33,21.24 -35.86,34.72 -51.46,22.64 0.31,-12.95 11.23,-5.78 10.11,-24.44l-4.7 1.8c-42.99,0.65 -33.27,15.65 -44.99,55.8 31.9,-14.63 85.39,-20.73 98.62,-51.46 15.55,-36.09 -3.28,-90.3 -11.69,-126.91 -4.7,-20.46 -12.33,-92.52 -41.84,-88.98 -35.76,4.3 -48.84,51.94 -46.72,82.02z"/>
   <path class="fil6" d="M610.11 611.68c-4.5,7.44 -12.35,19.02 -16.03,26.23 -7.77,15.2 1.43,15.91 -11.79,24.64 3.3,22.45 -0.79,10.89 7.5,26.9l-17.38 32.22c19.5,-14.53 42.63,-32.74 68.13,-34.18 11.72,-40.14 2,-55.14 44.99,-55.8 -35.5,-11.81 -40.61,13.7 -54.97,11.3l2.02 -36.53 -22.46 5.22z"/>
   <path class="fil7" d="M506.65 466.22l-17.1 15.47c-10,8.64 -14.12,15.21 -9.39,27.98 22.91,11.22 45.75,-2.21 53.7,6.09 14.72,4.98 4.56,-1.78 13.94,9.33l-5.46 5.98c4.6,19.05 33.15,22.56 50.56,19.05 18.43,-3.71 34.18,-19.64 46.8,-32.99l-0.81 -14.95c-14.27,23.68 -39.34,42.07 -67.12,25.82 -11.37,-6.65 -16.52,-20.21 -21.27,-23.17 -7.19,-4.47 -11.2,2.98 -21.14,-10.92l-7.33 5.89c3.15,9.02 -28.77,4.06 -29.45,3.59 7.1,-15.6 43.85,-25.69 36.07,-41.28l-9.14 1.22 -12.87 2.9z"/>
   <path class="fil8" d="M319.8 510c0,0.57 5.73,166.85 23.64,129.51 5.77,-12.03 10.93,-61.82 10.91,-76.27 -0.04,-32.21 -3.76,-45.65 -34.55,-53.24z"/>
   <path class="fil9" d="M605.26 796.67c6.9,19.79 16.31,32.18 37.03,19.55 11.7,-7.13 40.86,-18.41 45.15,-26.84 12.69,-24.93 -49.26,-38.51 -82.18,7.3z"/>
   <path class="fil10" d="M542.35 531.06c-4.41,18.57 -21.38,32.6 -22.99,39.72 -4.63,20.45 30.57,10.34 38.52,7.24 58.12,-22.69 53.86,-8.59 81.83,-60.9 -12.62,13.35 -28.38,29.28 -46.8,32.99 -17.41,3.51 -45.96,0 -50.56,-19.05z"/>
   <path class="fil11" d="M556.35 382.21c16.16,0.7 98.32,9.06 64.68,-30.45 -9.08,-10.67 -20.26,-14.3 -23,-29.8 -4.31,-24.44 5.15,-20.54 -13.06,-44.48 -3.06,19.21 -6.5,39.78 1.41,58.33 6.2,14.55 23.14,22.29 13.53,39.16l-43.56 7.24z"/>
   <path class="fil12" d="M735.64 346.67c-23.01,0.54 -19.36,73.76 5.13,60.56 27.93,-15.04 19.13,-61.13 -5.13,-60.56z"/>
   <path class="fil13" d="M690.23 629.91c1.12,18.65 -9.8,11.48 -10.11,24.44 15.6,12.08 46.13,-1.4 51.46,-22.64 6.88,-27.4 2.48,-56.11 -9.71,-80.83 -4.09,28.37 -0.48,38.18 -0.55,64 -0.08,30.11 -9.01,21.81 -31.09,15.03z"/>
   <path class="fil11" d="M539.62 749.98c18.4,-10.87 9.71,-3.6 17.36,-22.78l9.7 -2.35 5.72 -3.18 17.38 -32.22c-8.28,-16.02 -4.2,-4.45 -7.5,-26.9 -14.07,9.55 -13.15,28.2 -17.05,43.01 -5.8,22 -16,9.75 -25.62,44.42z"/>
   <path class="fil14" d="M679.25 438.58c23.78,4.62 20.58,21.99 21.73,44.45 1.21,23.58 5.99,28.45 16.6,48.61 0,-24.21 -5.17,-38.46 -9.24,-61.47 -2.49,-14.09 -2.07,-41.06 -20.1,-42.46l-8.99 10.87z"/>
   <path class="fil5" d="M572.41 721.68l-5.72 3.18 -7.65 25.13c15.06,-12.12 20.48,-29.27 36.5,-36.94 16.92,-8.1 35.41,-9.28 45,-25.54 -25.5,1.44 -48.63,19.65 -68.13,34.18z"/>
   <path class="fil15" d="M638.9 502.16l0.81 14.95 11.83 -1.87c3.96,-20.29 3.33,-45.81 10.93,-64.99l-12.84 3.44c-0.79,19.46 -1.09,32.55 -10.73,48.46z"/>
   <path class="fil11" d="M582.29 662.56c13.21,-8.73 4.02,-9.44 11.79,-24.64 3.68,-7.21 11.53,-18.8 16.03,-26.23l-13.06 -1.29 -0.23 10.52 -11.81 3.36c5.97,16.59 -2.01,18.04 -2.72,38.29z"/>
   <path class="fil16" d="M656.66 606.95c10.62,-3.93 17.29,-13.61 13.44,-24.32 -14.51,-2.73 -35.77,15.43 -13.44,24.32z"/>
   <polygon class="fil17" points="466.41,432.72 465.72,431.28 460.63,443.84 472.44,443.52 482.85,440.1 486.13,431.8 480.05,427.16 "/>
   <path class="fil18" d="M519.51 463.31l9.14 -1.22c10.67,-5.33 8.81,-2.03 14.82,-12.11l-7.99 -12.98 -0.37 5.26 -15.6 21.05z"/>
   <path class="fil19" d="M535.11 442.26l0.37 -5.26c-12.7,-4.96 -23.21,-9.08 -35.75,-3.19 9,5.53 -0.47,7.22 10.11,4.77 14.27,-3.3 11.73,-1.85 25.26,3.67z"/>
   <path class="fil8" d="M472.44 443.52l-11.81 0.33 5.09 -12.57c-10.57,6.13 -10.21,4.81 -8.31,17.03 12.05,1.67 5.61,3.74 15.04,-4.79z"/>
   <path class="fil20" d="M547.81 525.08c-9.38,-11.11 0.78,-4.35 -13.94,-9.33l1.6 14.48 12.34 -5.15z"/>
   <path class="fil19" d="M504.25 397.74l6.92 -1.46 8.94 -4.36 0.53 -5.87c-11.89,2.69 -12.99,0.33 -16.4,11.69z"/>
   <path class="fil13" d="M485.89 411.2l6.7 0.09 3.36 -2.37 8.3 -11.19c-12.1,3.61 -12.35,2.8 -18.35,13.46z"/>
   <polygon class="fil21" points="479.04,414.34 480.05,427.16 492.59,411.3 485.89,411.2 "/>
   <polygon class="fil16" points="466.41,432.72 480.05,427.16 479.04,414.34 "/>
   <polygon class="fil22" points="489.55,481.69 506.65,466.22 492.76,470.14 "/>
   <path class="fil23" d="M661.3 451.15c10.32,-2.35 10,0.31 14.83,-10.13l-14.83 10.13z"/>
   <polygon class="fil17" points="495.95,408.93 511.17,396.27 504.25,397.74 "/>
   <path class="fil24" d="M545.91 486.37c-5.59,-7.39 -3.33,-6 -10.41,1.39l10.41 -1.39z"/>
   <polygon class="fil25" points="521.68,499.85 521.98,495.19 529.37,493.9 516.61,492.77 "/>
   <polygon class="fil26" points="521.68,499.85 522.04,499.78 529.37,493.9 521.98,495.19 "/>
   <path class="fil27" d="M654.37 490c0.05,3.89 2.97,-0.23 3.03,-0.24 3.63,-0.5 -3.06,-2.67 -3.03,0.24z"/>
  </g>
 </g>
</svg>
